HIERARCHY
ROOT Hips
{
  OFFSET 0.000000 0.000000 0.000000
  CHANNELS 6 Xposition Yposition Zposition Zrotation Xrotation Yrotation
  JOINT LeftUpLeg
  {
    OFFSET 0.066924 -0.099578 -0.015922
    CHANNELS 3 Zrotation Xrotation Yrotation
    JOINT LeftLeg
    {
      OFFSET 0.060329 -0.345810 0.036209
      CHANNELS 3 Zrotation Xrotation Yrotation
      JOINT LeftFoot
      {
        OFFSET -0.043502 -0.386818 -0.091780
        CHANNELS 3 Zrotation Xrotation Yrotation
        JOINT LeftToeBase
        {
          OFFSET 0.055171 -0.062217 0.117569
          CHANNELS 3 Zrotation Xrotation Yrotation
          End Site
          {
            OFFSET 0 0 0.1
          }
        }
      }
    }
  }
  JOINT RightUpLeg
  {
    OFFSET -0.070956 -0.123771 -0.011793
    CHANNELS 3 Zrotation Xrotation Yrotation
    JOINT RightLeg
    {
      OFFSET -0.037083 -0.320632 0.063654
      CHANNELS 3 Zrotation Xrotation Yrotation
      JOINT RightFoot
      {
        OFFSET 0.010433 -0.393871 -0.120984
        CHANNELS 3 Zrotation Xrotation Yrotation
        JOINT RightToeBase
        {
          OFFSET -0.024435 -0.058861 0.114174
          CHANNELS 3 Zrotation Xrotation Yrotation
          End Site
          {
            OFFSET 0 0 0.1
          }
        }
      }
    }
  }
  JOINT Spine
  {
    OFFSET 0.001958 0.081267 -0.030772
    CHANNELS 3 Zrotation Xrotation Yrotation
    JOINT Spine1
    {
      OFFSET 0.015747 0.137375 0.042000
      CHANNELS 3 Zrotation Xrotation Yrotation
      JOINT Spine2
      {
        OFFSET 0.006988 0.076956 0.016500
        CHANNELS 3 Zrotation Xrotation Yrotation
        JOINT Neck
        {
          OFFSET 0.002771 0.177163 0.006947
          CHANNELS 3 Zrotation Xrotation Yrotation
          JOINT RightArm
          {
            OFFSET 0.018758 0.054247 0.068592
            CHANNELS 3 Zrotation Xrotation Yrotation
            End Site
            {
              OFFSET 0 0 0.1
            }
          }
        }
        JOINT RightShoulder
        {
          OFFSET 0.070429 0.094663 0.000981
          CHANNELS 3 Zrotation Xrotation Yrotation
          JOINT LeftArm
          {
            OFFSET 0.114066 -0.011652 -0.017796
            CHANNELS 3 Zrotation Xrotation Yrotation
            JOINT LeftForeArm
            {
              OFFSET 0.068748 -0.215185 0.009437
              CHANNELS 3 Zrotation Xrotation Yrotation
              JOINT LeftHand
              {
                OFFSET -0.048943 -0.143710 0.120974
                CHANNELS 3 Zrotation Xrotation Yrotation
                End Site
                {
                  OFFSET 0 0 0.1
                }
              }
            }
          }
        }
        JOINT LeftShoulder
        {
          OFFSET -0.074070 0.106741 0.010302
          CHANNELS 3 Zrotation Xrotation Yrotation
          JOINT RightForeArm
          {
            OFFSET -0.108267 -0.002359 -0.005597
            CHANNELS 3 Zrotation Xrotation Yrotation
            JOINT RightHand
            {
              OFFSET -0.106498 -0.207526 -0.038560
              CHANNELS 3 Zrotation Xrotation Yrotation
              JOINT LeftHandEnd
              {
                OFFSET 0.076914 -0.152398 0.174813
                CHANNELS 3 Zrotation Xrotation Yrotation
                End Site
                {
                  OFFSET 0 0 0.1
                }
              }
            }
          }
        }
      }
    }
  }
}
MOTION
Frames: 13
Frame Time: 0.05000000
0.000000 0.944875 0.000000 -0.000000 0.000000 0.000000 -55.564616 -3.996683 7.578072 64.707357 -11.084276 -6.373489 -16.629046 19.059351 1.975907 0.733020 12.323025 24.519561 59.949214 -2.729607 -4.730866 -65.659152 -14.377409 3.876512 8.458031 28.202353 -1.278712 1.198010 9.693221 -11.442557 -1.380338 -20.733897 -0.252528 -6.420955 37.502859 3.589215 1.243048 -4.859994 -0.033452 4.257987 -9.814921 0.371599 6.269129 -39.572189 15.581221 53.348818 -0.239326 -0.476374 30.771753 9.272020 -7.679815 -66.507548 -13.207740 -4.567441 -35.667523 -36.396564 -5.232983 -55.054474 -2.365775 4.537613 -33.378180 7.436806 0.409978 61.352745 5.431114 3.499136 61.566192 -52.630270 21.740520
0.003307 0.948477 0.011901 -0.000000 0.000000 -6.395557 -55.421518 -9.299677 11.208796 64.918737 -10.933441 -6.389867 -16.705391 18.822369 1.969360 0.719551 12.999192 24.732609 59.710447 2.925573 -1.300867 -65.287532 -14.022881 3.715485 8.043838 27.937312 -1.167815 1.329643 10.547439 -10.916787 0.826237 -20.156538 6.542411 -6.418735 37.252363 3.589076 1.397655 -5.206593 -0.021197 3.973823 -9.381343 0.323709 6.547100 -40.258686 15.449253 52.894172 5.030558 3.697878 31.479223 8.565566 -7.563210 -63.007444 -12.630321 -3.672571 -42.753482 -40.928142 -7.305762 -54.337578 -7.872520 8.876369 -36.064290 6.608134 -1.141739 59.676430 3.493923 2.027848 68.567648 -58.032524 23.908006
0.006618 0.952397 0.021945 -0.000000 0.000000 -6.520648 -55.312990 -9.584504 11.657603 65.023938 -11.126311 -6.701345 -16.717628 19.048634 1.938623 0.290748 13.280949 25.144407 59.871777 3.051800 -1.223612 -65.345881 -14.025374 3.701054 8.266190 28.395553 -1.278708 1.041965 10.305431 -10.840696 1.180346 -20.111046 6.729961 -6.345347 36.586344 3.414340 0.329722 -3.344547 -0.124327 5.056531 -10.719782 0.502312 6.429391 -40.310679 15.818373 53.487971 5.251818 3.880139 29.593529 8.490797 -7.557671 -65.706734 -12.809034 -4.282401 -38.836638 -36.828704 -6.353943 -54.675303 -7.757831 8.423340 -33.794048 5.778955 -1.363135 61.224463 5.908442 2.326661 65.069253 -53.526160 22.943200
0.013319 0.952408 0.027742 -0.000000 0.000000 -6.650212 -55.272755 -9.855879 12.051939 64.956753 -11.304751 -6.996654 -16.764461 18.991333 1.944165 0.197446 13.598461 25.534375 59.750895 3.250154 -0.995489 -65.179794 -13.770120 3.573927 8.195471 28.507383 -1.269155 1.003389 10.213452 -10.704745 1.232678 -20.248896 6.870337 -6.421173 36.669119 3.466390 0.131558 -2.932422 -0.138841 5.315929 -10.745295 0.547604 6.561863 -40.614580 16.136928 53.434537 5.411002 4.076848 29.319772 8.361424 -7.567307 -65.025459 -12.476833 -4.207503 -39.578709 -36.830856 -6.589304 -54.525784 -7.948601 8.706610 -33.837027 5.475715 -1.951935 61.265892 6.636845 2.137345 64.837241 -53.370451 22.833292
0.019236 0.953009 0.027843 -0.000000 0.000000 -6.784206 -55.289744 -10.001033 12.183061 64.698817 -11.360865 -7.086051 -16.474880 18.885726 1.928557 0.418572 13.154433 25.151234 59.922742 3.343728 -0.986976 -65.490165 -13.638456 3.600570 7.823679 28.252411 -1.095317 1.353641 10.249563 -10.347838 1.588823 -20.702674 7.074433 -7.529331 36.999028 3.976783 1.166370 -3.833427 -0.025805 4.733376 -10.056714 0.425807 6.904499 -40.235201 16.640695 53.273972 5.413845 3.985798 30.921727 10.649476 -9.564766 -66.965473 -13.110431 -5.998230 -32.361252 -33.411438 -4.519178 -54.691841 -8.277825 9.146761 -33.568067 8.010970 -0.049805 62.589121 6.773709 3.719609 57.576522 -50.040710 19.594685
0.015839 0.946590 0.026884 -0.000000 0.000000 -6.922586 -55.109149 -10.107014 12.315326 64.669762 -11.596844 -7.083944 -16.855364 19.004556 2.020079 0.726767 12.385983 25.460806 60.017883 3.518843 -0.833789 -65.624311 -14.113860 3.480839 7.777835 28.459270 -1.105177 1.384465 9.785756 -10.358535 1.664595 -20.835966 7.228657 -7.397450 37.216257 3.933040 1.562929 -4.675896 0.011018 4.308679 -9.683653 0.362888 6.886385 -39.725749 17.000885 53.076344 5.550825 4.166057 30.766315 10.635568 -9.608848 -67.629631 -13.511086 -6.141841 -31.248656 -32.963799 -4.289337 -54.713766 -8.353548 9.145289 -32.958862 7.805147 -0.184976 62.712418 7.246662 3.700057 56.769370 -48.711389 19.203956
0.016830 0.944939 0.038582 -0.000000 0.000000 -7.065286 -54.687338 -10.331297 12.767732 64.107455 -12.471661 -7.356763 -17.191654 19.927290 2.261913 1.132133 11.940324 25.191286 60.228069 3.611599 -0.842528 -66.179188 -14.117856 3.485922 7.936788 28.950841 -1.075621 1.642491 9.210912 -10.671037 1.898826 -21.412367 7.424317 -8.052184 36.468282 4.203704 1.481230 -2.484019 0.070619 5.165366 -11.162004 0.504453 7.290282 -39.522197 18.757220 53.201692 5.868300 4.622561 30.053427 14.241163 -13.290094 -73.175235 -12.138511 -10.662324 -15.899192 -12.845747 -1.361119 -55.100565 -8.292279 8.756452 -30.001212 9.542884 1.832615 67.510660 9.549426 5.421040 37.259590 -35.283860 11.129109
0.004097 0.945545 0.048026 -0.000000 0.000000 -7.212227 -54.782704 -10.517804 12.933227 64.305181 -12.343533 -7.440059 -17.259735 19.664333 2.218409 1.002821 12.207143 25.623290 60.141038 3.845524 -0.575412 -65.987665 -14.018066 3.328182 7.789520 28.908057 -1.063457 1.569716 9.404899 -10.343233 1.989689 -21.176693 7.584204 -8.019651 36.454698 4.154238 1.358881 -2.674077 0.046060 5.180357 -11.004390 0.505015 7.313965 -39.664711 18.739353 53.183554 6.071484 4.882841 29.951683 13.432728 -12.790563 -71.741950 -12.596952 -9.768640 -19.830665 -17.621102 -2.001630 -54.960191 -8.519289 9.086504 -30.753712 8.718916 0.791875 66.419627 9.204759 4.654863 42.438597 -38.935223 13.040011
-0.004654 0.930655 0.057198 -0.000000 0.000000 -7.363338 -54.444174 -10.532817 12.954132 64.209567 -12.493470 -7.299439 -17.535433 20.003570 2.293472 1.612490 10.029661 24.982017 60.652393 4.056095 -0.434999 -67.088177 -14.906038 3.074219 8.158839 28.952986 -1.103789 1.802770 8.660290 -10.937543 2.152903 -22.516332 7.791945 -8.012848 37.768762 4.350619 3.588110 -5.405745 0.311683 2.836690 -10.158399 0.178358 7.371242 -37.596369 19.120098 52.023966 6.187147 5.276287 30.815076 17.788847 -16.858852 -77.312420 -10.829359 -14.945361 2.651303 7.375114 -0.172734 -55.512585 -8.457423 8.631840 -27.336063 12.928745 4.963147 68.892648 11.029397 8.173870 16.546751 -16.608864 3.655017
0.000132 0.943000 0.075001 -0.000000 0.000000 -7.518524 -54.939247 -10.803642 13.098387 64.674725 -12.101636 -7.436607 -17.487996 19.228594 2.175101 1.090066 11.969151 26.093814 60.105047 4.294469 -0.102898 -65.859380 -14.201265 3.027308 7.431027 28.737380 -1.000691 1.590034 9.741636 -9.749463 2.044993 -20.899817 7.895731 -7.856920 36.831031 4.093848 2.087840 -4.537062 0.094364 4.075216 -9.959695 0.326337 7.412735 -39.389578 18.479063 52.669399 6.422806 5.415643 30.670604 12.659856 -12.571646 -69.657932 -13.218137 -8.824722 -23.596651 -23.460475 -2.702144 -54.751813 -8.993761 9.753819 -32.201188 8.217394 -0.254416 64.378677 7.957179 3.863086 48.715070 -43.527323 14.911664
0.002137 0.944816 0.092469 -0.000000 0.000000 -7.677689 -55.016921 -11.017247 13.306306 64.561616 -11.844447 -7.606949 -17.092633 18.566994 2.038979 0.996180 12.175776 26.180341 59.964504 4.481959 0.082924 -65.650576 -13.788920 2.970981 7.034564 28.344795 -0.868137 1.674136 9.737667 -9.126075 2.458920 -21.033674 8.134238 -8.861070 37.422167 4.543503 2.520977 -5.522610 0.119487 3.923545 -9.004746 0.285667 7.450004 -39.390404 18.207372 52.757235 6.433474 5.253095 32.178533 12.271460 -12.184224 -67.856865 -14.923034 -7.640139 -27.266285 -32.224789 -3.195948 -54.672334 -9.447882 10.486772 -33.210300 8.747160 -0.597431 62.743110 7.629596 3.852117 54.309179 -47.003874 17.393793
-0.002343 0.945510 0.104661 -0.000000 0.000000 -7.840731 -55.064953 -11.241294 13.541516 64.687674 -11.636523 -7.755767 -16.915304 18.384663 1.939492 0.771206 12.261988 26.178067 60.021211 4.726929 0.333802 -65.840849 -13.509703 2.796390 7.140057 28.248155 -0.874810 1.664866 9.817607 -9.152336 2.694407 -21.456756 8.351317 -9.055518 37.740548 4.661339 2.629867 -5.484848 0.137684 3.766053 -9.192416 0.259546 7.557096 -39.121593 18.315463 52.585788 6.653992 5.580257 32.250360 13.780641 -13.858398 -69.424166 -14.633561 -9.411171 -19.481511 -24.231778 -1.489569 -54.832016 -9.610282 10.570202 -32.217055 10.105035 0.614298 63.459246 8.268905 4.940665 44.965278 -41.547085 12.981492
-0.003863 0.942585 0.104198 -0.000000 0.000000 -8.007528 -54.861006 -11.266758 13.513532 64.588583 -11.818909 -7.589683 -17.413240 18.575702 2.079982 1.210615 11.910366 26.210089 59.957686 4.944248 0.552832 -65.976788 -13.563427 2.643193 7.121863 28.313300 -0.836067 1.829057 9.387812 -9.278976 2.887986 -21.395431 8.553211 -9.431143 37.314508 4.771422 2.266025 -4.687786 0.089129 4.598342 -9.926032 0.368270 7.600406 -38.675092 19.221977 52.858313 7.047318 6.117013 32.366374 14.570908 -15.362776 -70.584665 -15.508624 -10.582002 -18.214806 -21.067866 -1.346596 -54.993240 -9.727208 10.561709 -31.698820 9.759947 0.359987 64.039795 7.290854 4.491673 45.006889 -41.216777 12.778053
